<svg width="14" height="10" viewBox="0 0 14 10" fill="none" xmlns="http://www.w3.org/2000/svg">
<g clip-path="url(#clip0_364_9307)">
<path d="M4.7999 9.6C4.6999 9.6 4.5999 9.6 4.4999 9.5L0.0999023 5.1C-9.76548e-05 4.9 -9.76548e-05 4.7 0.0999023 4.5L4.3999 0.2C4.5999 0.1 4.6999 0 4.7999 0C4.8999 0 4.9999 0 5.0999 0.1C5.2999 0.3 5.2999 0.5 5.0999 0.7L1.4999 4.4H12.9999C13.1999 4.4 13.3999 4.6 13.3999 4.8C13.3999 5 13.2999 5.2 12.9999 5.2H1.4999L5.0999 8.8C5.2999 9 5.2999 9.3 5.0999 9.4C4.9999 9.5 4.8999 9.6 4.7999 9.6Z" fill="#888888"/>
</g>
<defs>
<clipPath id="clip0_364_9307">
<rect width="13.5" height="9.6" fill="white"/>
</clipPath>
</defs>
</svg>
