<svg width="11" height="6" viewBox="0 0 11 6" fill="none" xmlns="http://www.w3.org/2000/svg">
<g clip-path="url(#clip0_364_1633)">
<path d="M0.25 0.416667C0.25 0.333334 0.250001 0.25 0.333334 0.166667C0.500001 2.03388e-07 0.75 2.14316e-07 0.916667 0.166667L5.25 4.41667L9.58333 0.0833339C9.75 6.13306e-07 10 6.24234e-07 10.1667 0.083334C10.25 0.166667 10.25 0.250001 10.25 0.416667C10.25 0.583334 10.25 0.583334 10.1667 0.666667L5.58333 5.25C5.41667 5.33333 5.33333 5.41667 5.25 5.41667C5.16667 5.41667 5.08333 5.41667 5 5.33333L0.416667 0.75C0.25 0.583334 0.25 0.5 0.25 0.416667Z" fill="#6B5B51"/>
</g>
<defs>
<clipPath id="clip0_364_1633">
<rect width="5.41667" height="10" fill="white" transform="translate(10.25) rotate(90)"/>
</clipPath>
</defs>
</svg>
