<svg width="19" height="16" viewBox="0 0 19 16" fill="none" xmlns="http://www.w3.org/2000/svg">
<g clip-path="url(#clip0_364_6274)">
<path fill-rule="evenodd" clip-rule="evenodd" d="M5.30005 13.7C5.50005 12.9 6.20007 12.4 7.10007 12.4C7.90007 12.4 8.70006 13 8.90005 13.7H18.7001C18.8001 13.7 18.8001 13.7 18.9001 13.7C19.0001 13.7 19.0001 13.8 19.0001 13.8L19.1001 13.9V14V14.1C19.1001 14.1 19.1001 14.2 19.0001 14.2C18.9001 14.3 18.9 14.3 18.8 14.4C18.8 14.4 18.7001 14.4 18.6001 14.4H8.80005C8.60005 15.2 7.90006 15.8 7.00006 15.8C6.20006 15.8 5.40007 15.2 5.20007 14.4H0.400055C0.300055 14.4 0.300073 14.4 0.200073 14.4C0.100073 14.4 6.10352e-05 14.3 6.10352e-05 14.2C6.10352e-05 14.2 5.49257e-05 14.1 -0.0999451 14.1V14C-0.0999451 13.9 -0.0999451 13.9 -0.0999451 13.9C-0.0999451 13.8 6.10352e-05 13.8 6.10352e-05 13.8L0.100067 13.7C0.200067 13.7 0.200049 13.7 0.300049 13.7H5.30005ZM7.00006 13.3C7.50006 13.3 7.90005 13.7 7.90005 14.2C7.90005 14.7 7.50006 15.1 7.00006 15.1C6.50006 15.1 6.10007 14.7 6.10007 14.2C6.10007 13.7 6.50006 13.3 7.00006 13.3ZM12.5001 7.5C12.7001 6.7 13.4 6.2 14.3 6.2C15.1 6.2 15.9001 6.8 16.1001 7.5H18.6001C18.7001 7.5 18.7 7.5 18.8 7.5C18.9 7.5 18.9001 7.60001 18.9001 7.60001L19.0001 7.7V7.8V7.89999C19.0001 7.89999 19.0001 8 18.9001 8C18.8001 8.1 18.8001 8.1 18.7001 8.2C18.7001 8.2 18.6001 8.2 18.5001 8.2H16.0001C15.8001 9 15.1001 9.5 14.2001 9.5C13.4001 9.5 12.6001 8.9 12.4001 8.2H0.400055C0.300055 8.2 0.300073 8.2 0.200073 8.2C0.100073 8.2 0.100067 8.10001 0.100067 8.10001L6.10352e-05 8V7.89999V7.8C6.10352e-05 7.8 6.71446e-05 7.7 0.100067 7.7C0.200067 7.6 0.200049 7.6 0.300049 7.5C0.300049 7.5 0.400061 7.5 0.500061 7.5H12.5001ZM14.3 7.10001C14.8 7.10001 15.2001 7.5 15.2001 8C15.2001 8.5 14.8 8.89999 14.3 8.89999C13.8 8.89999 13.4001 8.5 13.4001 8C13.3001 7.5 13.8 7.10001 14.3 7.10001ZM2.30005 1.39999C2.50005 0.599994 3.20007 0 4.10007 0C4.90007 0 5.70006 0.599994 5.90005 1.39999H18.6001C18.7001 1.39999 18.7 1.39999 18.8 1.39999C18.9 1.39999 18.9001 1.5 18.9001 1.5L19.0001 1.60001V1.7V1.8C19.0001 1.8 19.0001 1.89999 18.9001 1.89999C18.8001 1.99999 18.8001 2.00001 18.7001 2.10001C18.7001 2.10001 18.6001 2.10001 18.5001 2.10001H5.80005C5.60005 2.90001 4.90006 3.39999 4.00006 3.39999C3.20006 3.39999 2.40007 2.80001 2.20007 2.10001H0.300049C0.200049 2.10001 0.200067 2.10001 0.100067 2.10001C6.71446e-05 2.10001 -0.0999451 1.99999 -0.0999451 1.89999C-0.0999451 1.89999 -0.0999512 1.8 -0.199951 1.8V1.7C-0.199951 1.6 -0.199951 1.60001 -0.199951 1.60001C-0.199951 1.50001 -0.0999451 1.5 -0.0999451 1.5L6.10352e-05 1.39999C0.100061 1.39999 0.100073 1.39999 0.200073 1.39999H2.30005ZM4.10007 0.899994C4.60007 0.899994 5.00006 1.3 5.00006 1.8C5.00006 2.3 4.60007 2.7 4.10007 2.7C3.60007 2.7 3.20007 2.3 3.20007 1.8C3.20007 1.3 3.60007 0.899994 4.10007 0.899994Z" fill="#6B5B51"/>
</g>
<defs>
<clipPath id="clip0_364_6274">
<rect width="19" height="16" fill="white"/>
</clipPath>
</defs>
</svg>
