<svg width="7" height="12" viewBox="0 0 7 12" fill="none" xmlns="http://www.w3.org/2000/svg">
<g clip-path="url(#clip0_364_9834)">
<path d="M0.499902 12C0.399902 12 0.299902 12 0.199902 11.9C-9.76622e-05 11.7 -9.76622e-05 11.4 0.199902 11.2L5.2999 6L0.0999023 0.8C-9.76548e-05 0.6 -9.76548e-05 0.3 0.0999023 0.1C0.199902 0 0.299902 0 0.499902 0C0.699902 0 0.699902 0 0.799902 0.1L6.2999 5.6C6.3999 5.8 6.4999 5.9 6.4999 6C6.4999 6.1 6.4999 6.2 6.3999 6.3L0.899902 11.8C0.699902 12 0.599902 12 0.499902 12Z" fill="#6B5B51"/>
</g>
<defs>
<clipPath id="clip0_364_9834">
<rect width="6.5" height="12" fill="white"/>
</clipPath>
</defs>
</svg>
