<svg width="19" height="14" viewBox="0 0 19 14" fill="none" xmlns="http://www.w3.org/2000/svg">
<g clip-path="url(#clip0_364_6302)">
<path fill-rule="evenodd" clip-rule="evenodd" d="M18.5 1H0.5C0.2 1 0 0.8 0 0.5C0 0.2 0.2 0 0.5 0H18.5C18.8 0 19 0.2 19 0.5C19 0.8 18.8 1 18.5 1Z" fill="#6B5B51"/>
<path fill-rule="evenodd" clip-rule="evenodd" d="M15.5 7H0.5C0.2 7 0 6.8 0 6.5C0 6.2 0.2 6 0.5 6H15.5C15.8 6 16 6.2 16 6.5C16 6.8 15.8 7 15.5 7Z" fill="#6B5B51"/>
<path fill-rule="evenodd" clip-rule="evenodd" d="M0.5 13H11.5C11.8 13 12 13.2 12 13.5C12 13.8 11.8 14 11.5 14H0.5" fill="#6B5B51"/>
</g>
<defs>
<clipPath id="clip0_364_6302">
<rect width="19" height="14" fill="white"/>
</clipPath>
</defs>
</svg>
