<svg width="11" height="6" viewBox="0 0 11 6" fill="none" xmlns="http://www.w3.org/2000/svg">
<g clip-path="url(#clip0_364_1627)">
<path d="M0.25 5C0.25 5.08333 0.250001 5.16667 0.333334 5.25C0.500001 5.41667 0.75 5.41667 0.916667 5.25L5.25 1L9.58333 5.33333C9.75 5.41667 10 5.41667 10.1667 5.33333C10.25 5.25 10.25 5.16667 10.25 5C10.25 4.83333 10.25 4.83333 10.1667 4.75L5.58333 0.166667C5.41667 0.0833337 5.33333 6.91751e-07 5.25 6.95394e-07C5.16667 6.99037e-07 5.08333 7.02679e-07 5 0.0833337L0.416667 4.66667C0.25 4.83333 0.25 4.91667 0.25 5Z" fill="#6B5B51"/>
</g>
<defs>
<clipPath id="clip0_364_1627">
<rect width="5.41667" height="10" fill="white" transform="matrix(-4.37114e-08 -1 -1 4.37114e-08 10.25 5.41667)"/>
</clipPath>
</defs>
</svg>
